solid OpenSCAD_Model
  facet normal 1 -0 0
    outer loop
      vertex 4 6 3
      vertex 4 9 2
      vertex 4 9 3
    endloop
  endfacet
  facet normal 1 0 0
    outer loop
      vertex 4 9 2
      vertex 4 6 3
      vertex 4 6 2
    endloop
  endfacet
  facet normal 1 -0 0
    outer loop
      vertex 4 1 3
      vertex 4 5 2
      vertex 4 5 3
    endloop
  endfacet
  facet normal 1 0 0
    outer loop
      vertex 4 5 2
      vertex 4 1 3
      vertex 4 1 2
    endloop
  endfacet
  facet normal 1 -0 0
    outer loop
      vertex 4 5 9
      vertex 4 6 3
      vertex 4 6 9
    endloop
  endfacet
  facet normal 1 0 0
    outer loop
      vertex 4 6 3
      vertex 4 5 9
      vertex 4 5 3
    endloop
  endfacet
  facet normal 1 -0 0
    outer loop
      vertex 4 5 2
      vertex 4 6 1
      vertex 4 6 2
    endloop
  endfacet
  facet normal 1 0 0
    outer loop
      vertex 4 6 1
      vertex 4 5 2
      vertex 4 5 1
    endloop
  endfacet
  facet normal -0 0 1
    outer loop
      vertex 3 6 9
      vertex 4 5 9
      vertex 4 6 9
    endloop
  endfacet
  facet normal 0 0 1
    outer loop
      vertex 4 5 9
      vertex 3 6 9
      vertex 3 5 9
    endloop
  endfacet
  facet normal 0 0 -1
    outer loop
      vertex 3 5 1
      vertex 4 6 1
      vertex 4 5 1
    endloop
  endfacet
  facet normal -0 0 -1
    outer loop
      vertex 4 6 1
      vertex 3 5 1
      vertex 3 6 1
    endloop
  endfacet
  facet normal -1 0 0
    outer loop
      vertex 3 6 2
      vertex 3 9 3
      vertex 3 9 2
    endloop
  endfacet
  facet normal -1 -0 0
    outer loop
      vertex 3 9 3
      vertex 3 6 2
      vertex 3 6 3
    endloop
  endfacet
  facet normal -1 0 0
    outer loop
      vertex 3 1 2
      vertex 3 5 3
      vertex 3 5 2
    endloop
  endfacet
  facet normal -1 -0 0
    outer loop
      vertex 3 5 3
      vertex 3 1 2
      vertex 3 1 3
    endloop
  endfacet
  facet normal -1 0 0
    outer loop
      vertex 3 5 3
      vertex 3 6 9
      vertex 3 6 3
    endloop
  endfacet
  facet normal -1 -0 0
    outer loop
      vertex 3 6 9
      vertex 3 5 3
      vertex 3 5 9
    endloop
  endfacet
  facet normal -1 0 0
    outer loop
      vertex 3 5 1
      vertex 3 6 2
      vertex 3 6 1
    endloop
  endfacet
  facet normal -1 -0 0
    outer loop
      vertex 3 6 2
      vertex 3 5 1
      vertex 3 5 2
    endloop
  endfacet
  facet normal 0 1 -0
    outer loop
      vertex 4 6 3
      vertex 3 6 9
      vertex 4 6 9
    endloop
  endfacet
  facet normal 0 1 0
    outer loop
      vertex 3 6 9
      vertex 4 6 3
      vertex 3 6 3
    endloop
  endfacet
  facet normal 0 1 -0
    outer loop
      vertex 4 6 1
      vertex 3 6 2
      vertex 4 6 2
    endloop
  endfacet
  facet normal 0 1 0
    outer loop
      vertex 3 6 2
      vertex 4 6 1
      vertex 3 6 1
    endloop
  endfacet
  facet normal 0 -1 0
    outer loop
      vertex 3 5 3
      vertex 4 5 9
      vertex 3 5 9
    endloop
  endfacet
  facet normal 0 -1 -0
    outer loop
      vertex 4 5 9
      vertex 3 5 3
      vertex 4 5 3
    endloop
  endfacet
  facet normal 0 -1 0
    outer loop
      vertex 3 5 1
      vertex 4 5 2
      vertex 3 5 2
    endloop
  endfacet
  facet normal 0 -1 -0
    outer loop
      vertex 4 5 2
      vertex 3 5 1
      vertex 4 5 1
    endloop
  endfacet
  facet normal -0 0 1
    outer loop
      vertex 3 9 3
      vertex 4 6 3
      vertex 4 9 3
    endloop
  endfacet
  facet normal 0 0 1
    outer loop
      vertex 4 6 3
      vertex 3 9 3
      vertex 3 6 3
    endloop
  endfacet
  facet normal -0 0 1
    outer loop
      vertex 3 5 3
      vertex 4 1 3
      vertex 4 5 3
    endloop
  endfacet
  facet normal 0 0 1
    outer loop
      vertex 4 1 3
      vertex 3 5 3
      vertex 3 1 3
    endloop
  endfacet
  facet normal 0 0 -1
    outer loop
      vertex 3 6 2
      vertex 4 9 2
      vertex 4 6 2
    endloop
  endfacet
  facet normal -0 0 -1
    outer loop
      vertex 4 9 2
      vertex 3 6 2
      vertex 3 9 2
    endloop
  endfacet
  facet normal 0 0 -1
    outer loop
      vertex 3 1 2
      vertex 4 5 2
      vertex 4 1 2
    endloop
  endfacet
  facet normal -0 0 -1
    outer loop
      vertex 4 5 2
      vertex 3 1 2
      vertex 3 5 2
    endloop
  endfacet
  facet normal 0 1 -0
    outer loop
      vertex 4 9 2
      vertex 3 9 3
      vertex 4 9 3
    endloop
  endfacet
  facet normal 0 1 0
    outer loop
      vertex 3 9 3
      vertex 4 9 2
      vertex 3 9 2
    endloop
  endfacet
  facet normal 0 -1 0
    outer loop
      vertex 3 1 2
      vertex 4 1 3
      vertex 3 1 3
    endloop
  endfacet
  facet normal 0 -1 -0
    outer loop
      vertex 4 1 3
      vertex 3 1 2
      vertex 4 1 2
    endloop
  endfacet
  facet normal 1 -0 0
    outer loop
      vertex 9 5 3
      vertex 9 6 2
      vertex 9 6 3
    endloop
  endfacet
  facet normal 1 0 0
    outer loop
      vertex 9 6 2
      vertex 9 5 3
      vertex 9 5 2
    endloop
  endfacet
  facet normal -0 0 1
    outer loop
      vertex 1 6 3
      vertex 3 5 3
      vertex 3 6 3
    endloop
  endfacet
  facet normal 0 0 1
    outer loop
      vertex 3 5 3
      vertex 1 6 3
      vertex 1 5 3
    endloop
  endfacet
  facet normal -0 0 1
    outer loop
      vertex 4 6 3
      vertex 9 5 3
      vertex 9 6 3
    endloop
  endfacet
  facet normal 0 0 1
    outer loop
      vertex 9 5 3
      vertex 4 6 3
      vertex 4 5 3
    endloop
  endfacet
  facet normal 0 0 -1
    outer loop
      vertex 4 5 2
      vertex 9 6 2
      vertex 9 5 2
    endloop
  endfacet
  facet normal -0 0 -1
    outer loop
      vertex 9 6 2
      vertex 4 5 2
      vertex 4 6 2
    endloop
  endfacet
  facet normal 0 0 -1
    outer loop
      vertex 1 5 2
      vertex 3 6 2
      vertex 3 5 2
    endloop
  endfacet
  facet normal -0 0 -1
    outer loop
      vertex 3 6 2
      vertex 1 5 2
      vertex 1 6 2
    endloop
  endfacet
  facet normal -1 0 0
    outer loop
      vertex 1 5 2
      vertex 1 6 3
      vertex 1 6 2
    endloop
  endfacet
  facet normal -1 -0 0
    outer loop
      vertex 1 6 3
      vertex 1 5 2
      vertex 1 5 3
    endloop
  endfacet
  facet normal 0 1 -0
    outer loop
      vertex 3 6 2
      vertex 1 6 3
      vertex 3 6 3
    endloop
  endfacet
  facet normal 0 1 0
    outer loop
      vertex 1 6 3
      vertex 3 6 2
      vertex 1 6 2
    endloop
  endfacet
  facet normal 0 1 -0
    outer loop
      vertex 9 6 2
      vertex 4 6 3
      vertex 9 6 3
    endloop
  endfacet
  facet normal 0 1 0
    outer loop
      vertex 4 6 3
      vertex 9 6 2
      vertex 4 6 2
    endloop
  endfacet
  facet normal 0 -1 0
    outer loop
      vertex 1 5 2
      vertex 3 5 3
      vertex 1 5 3
    endloop
  endfacet
  facet normal 0 -1 -0
    outer loop
      vertex 3 5 3
      vertex 1 5 2
      vertex 3 5 2
    endloop
  endfacet
  facet normal 0 -1 0
    outer loop
      vertex 4 5 2
      vertex 9 5 3
      vertex 4 5 3
    endloop
  endfacet
  facet normal 0 -1 -0
    outer loop
      vertex 9 5 3
      vertex 4 5 2
      vertex 9 5 2
    endloop
  endfacet
endsolid OpenSCAD_Model
