<?xml version="1.0" encoding="UTF-8" standalone="no"?>
<!DOCTYPE svg PUBLIC "-//W3C//DTD SVG 1.1//EN" "http://www.w3.org/Graphics/SVG/1.1/DTD/svg11.dtd">
<svg width="100%" height="100%" viewBox="0 0 1024 1024" version="1.1" xmlns="http://www.w3.org/2000/svg" xmlns:xlink="http://www.w3.org/1999/xlink" xml:space="preserve" xmlns:serif="http://www.serif.com/" style="fill-rule:evenodd;clip-rule:evenodd;stroke-linejoin:round;stroke-miterlimit:2;">
    <path d="M474.915,797.994C263.474,973.745 75.286,1063.91 17.686,1006.31C-39.914,948.714 50.255,760.526 226.006,549.085C227.075,557.394 228.498,565.593 230.259,573.666C111.254,731.387 57.321,869.351 105.985,918.015C154.649,966.679 292.613,912.746 450.334,793.741C458.407,795.502 466.606,796.925 474.915,797.994ZM549.085,226.006C760.526,50.255 948.714,-39.914 1006.31,17.686C1063.91,75.286 973.745,263.474 797.994,474.915C796.925,466.606 795.502,458.407 793.741,450.334C912.746,292.613 966.679,154.649 918.015,105.985C869.351,57.321 731.387,111.254 573.666,230.259C565.593,228.498 557.394,227.075 549.085,226.006Z"/>
    <path d="M479.153,784.283C343.261,768.032 237.767,652.239 237.767,512C237.767,360.646 360.646,237.767 512,237.767C663.354,237.767 786.233,360.646 786.233,512C786.233,530.935 784.31,549.424 780.649,567.283L749.714,567.283C743.792,567.283 738.176,569.907 734.376,574.448L586.205,751.513L586.205,571.592C676.201,498.262 688.098,424.517 685.057,346.905C641.48,301.244 580.038,272.778 512,272.778C379.97,272.778 272.778,379.97 272.778,512C272.778,550.026 281.67,585.992 297.485,617.929C348.466,624.401 417.592,627.008 479.153,616.001L479.153,784.283Z"/>
    <g transform="matrix(2.04591,0,0,2.04591,319.066,334.947)">
        <g transform="matrix(431.228,0,0,431.228,262.67,354.906)">
        </g>
        <text x="56.543px" y="354.906px" style="font-family:'AppleSDGothicNeo-Regular', 'Apple SD Gothic Neo';font-size:431.228px;">k</text>
    </g>
</svg>
